<mxfile host="65bd71144e">
    <diagram id="VnnDO9P3KXPO5_Lu44Ng" name="ページ1">
        <mxGraphModel dx="568" dy="580" grid="1" gridSize="10" guides="1" tooltips="1" connect="1" arrows="1" fold="1" page="1" pageScale="1" pageWidth="827" pageHeight="1169" background="#ffffff" math="0" shadow="0">
            <root>
                <mxCell id="0"/>
                <mxCell id="1" parent="0"/>
                <mxCell id="26" value="&lt;font style=&quot;font-size: 10px&quot;&gt;本棚情報を入力し、&lt;br&gt;登録ボタンを押す&lt;/font&gt;" style="text;html=1;align=center;verticalAlign=middle;resizable=0;points=[];autosize=1;strokeColor=none;fillColor=none;" parent="1" vertex="1">
                    <mxGeometry x="50" y="140" width="110" height="40" as="geometry"/>
                </mxCell>
                <mxCell id="2" value="ユーザー" style="shape=umlActor;verticalLabelPosition=bottom;verticalAlign=top;html=1;" parent="1" vertex="1">
                    <mxGeometry x="20" y="175" width="30" height="60" as="geometry"/>
                </mxCell>
                <mxCell id="3" value="メイン&lt;br&gt;画面" style="shape=umlBoundary;whiteSpace=wrap;html=1;fillColor=#1ba1e2;fontColor=#ffffff;strokeColor=#006EAF;" parent="1" vertex="1">
                    <mxGeometry x="150" y="14" width="80" height="70" as="geometry"/>
                </mxCell>
                <mxCell id="4" value="管理画面" style="shape=umlBoundary;whiteSpace=wrap;html=1;fillColor=#1ba1e2;fontColor=#ffffff;strokeColor=#006EAF;" parent="1" vertex="1">
                    <mxGeometry x="150" y="153.5" width="80" height="65" as="geometry"/>
                </mxCell>
                <mxCell id="5" value="変更画面" style="shape=umlBoundary;whiteSpace=wrap;html=1;fillColor=#1ba1e2;fontColor=#ffffff;strokeColor=#006EAF;" parent="1" vertex="1">
                    <mxGeometry x="150" y="392.5" width="80" height="65" as="geometry"/>
                </mxCell>
                <mxCell id="8" value="" style="endArrow=classic;html=1;startArrow=none;entryX=-0.026;entryY=0.502;entryDx=0;entryDy=0;entryPerimeter=0;" parent="1" target="3" edge="1">
                    <mxGeometry width="50" height="50" relative="1" as="geometry">
                        <mxPoint x="40" y="163" as="sourcePoint"/>
                        <mxPoint x="147.12" y="43.68000000000001" as="targetPoint"/>
                    </mxGeometry>
                </mxCell>
                <mxCell id="9" value="" style="endArrow=classic;html=1;entryX=-0.045;entryY=0.501;entryDx=0;entryDy=0;entryPerimeter=0;" parent="1" target="4" edge="1">
                    <mxGeometry width="50" height="50" relative="1" as="geometry">
                        <mxPoint x="60" y="185.23" as="sourcePoint"/>
                        <mxPoint x="140" y="185.23" as="targetPoint"/>
                    </mxGeometry>
                </mxCell>
                <mxCell id="10" value="" style="endArrow=classic;html=1;" parent="1" target="5" edge="1">
                    <mxGeometry width="50" height="50" relative="1" as="geometry">
                        <mxPoint x="60" y="240" as="sourcePoint"/>
                        <mxPoint x="130" y="340" as="targetPoint"/>
                    </mxGeometry>
                </mxCell>
                <mxCell id="11" value="" style="endArrow=classic;html=1;entryX=-0.019;entryY=0.529;entryDx=0;entryDy=0;entryPerimeter=0;" parent="1" target="14" edge="1">
                    <mxGeometry width="50" height="50" relative="1" as="geometry">
                        <mxPoint x="230" y="48.17" as="sourcePoint"/>
                        <mxPoint x="320" y="48.17" as="targetPoint"/>
                        <Array as="points"/>
                    </mxGeometry>
                </mxCell>
                <mxCell id="12" value="" style="endArrow=classic;html=1;exitX=0.004;exitY=0.592;exitDx=0;exitDy=0;exitPerimeter=0;" parent="1" source="15" target="4" edge="1">
                    <mxGeometry width="50" height="50" relative="1" as="geometry">
                        <mxPoint x="366.0799999999999" y="208.44000000000005" as="sourcePoint"/>
                        <mxPoint x="223.44000000000005" y="207.625" as="targetPoint"/>
                        <Array as="points"/>
                    </mxGeometry>
                </mxCell>
                <mxCell id="13" value="" style="endArrow=classic;html=1;entryX=-0.06;entryY=0.531;entryDx=0;entryDy=0;entryPerimeter=0;exitX=1.052;exitY=0.462;exitDx=0;exitDy=0;exitPerimeter=0;" parent="1" source="5" target="68" edge="1">
                    <mxGeometry width="50" height="50" relative="1" as="geometry">
                        <mxPoint x="240" y="418" as="sourcePoint"/>
                        <mxPoint x="330" y="421" as="targetPoint"/>
                        <Array as="points"/>
                    </mxGeometry>
                </mxCell>
                <mxCell id="14" value="&lt;font style=&quot;font-size: 10px&quot;&gt;本棚の管理のボタンを押す&lt;/font&gt;" style="ellipse;shape=umlControl;whiteSpace=wrap;html=1;" parent="1" vertex="1">
                    <mxGeometry x="330" width="70" height="90" as="geometry"/>
                </mxCell>
                <mxCell id="15" value="&lt;font style=&quot;font-size: 9px&quot;&gt;本棚名と段数と格段のサイズを&lt;br&gt;表示する&lt;/font&gt;" style="ellipse;shape=umlControl;whiteSpace=wrap;html=1;" parent="1" vertex="1">
                    <mxGeometry x="330" y="84" width="70" height="90" as="geometry"/>
                </mxCell>
                <mxCell id="16" value="&lt;font style=&quot;font-size: 10px&quot;&gt;本棚を&lt;br&gt;取得する&lt;/font&gt;" style="ellipse;shape=umlControl;whiteSpace=wrap;html=1;" parent="1" vertex="1">
                    <mxGeometry x="510" width="80" height="90" as="geometry"/>
                </mxCell>
                <mxCell id="17" value="" style="endArrow=classic;html=1;exitX=1.047;exitY=0.563;exitDx=0;exitDy=0;exitPerimeter=0;entryX=0.012;entryY=0.546;entryDx=0;entryDy=0;entryPerimeter=0;" parent="1" source="14" target="16" edge="1">
                    <mxGeometry width="50" height="50" relative="1" as="geometry">
                        <mxPoint x="414" y="49.17" as="sourcePoint"/>
                        <mxPoint x="504" y="49.17" as="targetPoint"/>
                        <Array as="points"/>
                    </mxGeometry>
                </mxCell>
                <mxCell id="18" value="" style="endArrow=classic;html=1;entryX=0.913;entryY=0.239;entryDx=0;entryDy=0;entryPerimeter=0;" parent="1" source="16" target="15" edge="1">
                    <mxGeometry width="50" height="50" relative="1" as="geometry">
                        <mxPoint x="414" y="209.5" as="sourcePoint"/>
                        <mxPoint x="440" y="170" as="targetPoint"/>
                        <Array as="points"/>
                    </mxGeometry>
                </mxCell>
                <mxCell id="19" value="本棚台帳" style="ellipse;shape=umlEntity;whiteSpace=wrap;html=1;fillColor=#d80073;strokeColor=#A50040;fontColor=#ffffff;" parent="1" vertex="1">
                    <mxGeometry x="710" y="14" width="70" height="70" as="geometry"/>
                </mxCell>
                <mxCell id="21" value="" style="endArrow=none;html=1;exitX=1.037;exitY=0.549;exitDx=0;exitDy=0;exitPerimeter=0;entryX=0;entryY=0.5;entryDx=0;entryDy=0;" parent="1" source="16" target="19" edge="1">
                    <mxGeometry width="50" height="50" relative="1" as="geometry">
                        <mxPoint x="590" y="80" as="sourcePoint"/>
                        <mxPoint x="680" y="80" as="targetPoint"/>
                    </mxGeometry>
                </mxCell>
                <mxCell id="22" value="本棚" style="ellipse;shape=umlEntity;whiteSpace=wrap;html=1;fillColor=#d80073;fontColor=#ffffff;strokeColor=#A50040;" parent="1" vertex="1">
                    <mxGeometry x="610" y="99" width="60" height="60" as="geometry"/>
                </mxCell>
                <mxCell id="23" value="" style="endArrow=none;html=1;exitX=0.888;exitY=0.918;exitDx=0;exitDy=0;exitPerimeter=0;" parent="1" source="16" target="22" edge="1">
                    <mxGeometry width="50" height="50" relative="1" as="geometry">
                        <mxPoint x="592.59" y="83.91999999999996" as="sourcePoint"/>
                        <mxPoint x="700.0000000000011" y="85.00000000000006" as="targetPoint"/>
                    </mxGeometry>
                </mxCell>
                <mxCell id="25" value="本棚の管理&lt;br style=&quot;font-size: 10px;&quot;&gt;ボタンを押す" style="text;html=1;align=center;verticalAlign=middle;resizable=0;points=[];autosize=1;strokeColor=none;fillColor=none;fontSize=10;" parent="1" vertex="1">
                    <mxGeometry x="60" y="74" width="80" height="30" as="geometry"/>
                </mxCell>
                <mxCell id="27" value="" style="endArrow=classic;html=1;" parent="1" target="28" edge="1">
                    <mxGeometry width="50" height="50" relative="1" as="geometry">
                        <mxPoint x="230" y="220" as="sourcePoint"/>
                        <mxPoint x="330" y="350" as="targetPoint"/>
                        <Array as="points"/>
                    </mxGeometry>
                </mxCell>
                <mxCell id="28" value="追加ボタンを押す" style="ellipse;shape=umlControl;whiteSpace=wrap;html=1;fontSize=10;" parent="1" vertex="1">
                    <mxGeometry x="330" y="180" width="70" height="80" as="geometry"/>
                </mxCell>
                <mxCell id="29" value="変更ボタンを押す" style="text;html=1;align=center;verticalAlign=middle;resizable=0;points=[];autosize=1;strokeColor=none;fillColor=none;fontSize=10;" parent="1" vertex="1">
                    <mxGeometry x="50" y="280" width="100" height="20" as="geometry"/>
                </mxCell>
                <mxCell id="31" value="" style="endArrow=classic;html=1;fontSize=10;entryX=0.005;entryY=0.495;entryDx=0;entryDy=0;entryPerimeter=0;" parent="1" source="28" target="32" edge="1">
                    <mxGeometry width="50" height="50" relative="1" as="geometry">
                        <mxPoint x="420" y="420" as="sourcePoint"/>
                        <mxPoint x="470" y="417" as="targetPoint"/>
                    </mxGeometry>
                </mxCell>
                <mxCell id="32" value="全ての項目が入力されているか確認する" style="ellipse;shape=umlControl;whiteSpace=wrap;html=1;fontSize=10;" parent="1" vertex="1">
                    <mxGeometry x="515" y="180" width="70" height="80" as="geometry"/>
                </mxCell>
                <mxCell id="34" value="入力エラー&lt;br&gt;を出す" style="ellipse;shape=umlControl;whiteSpace=wrap;html=1;fontSize=10;fillColor=#a0522d;strokeColor=#6D1F00;fontColor=#ffffff;" parent="1" vertex="1">
                    <mxGeometry x="335" y="270" width="60" height="70" as="geometry"/>
                </mxCell>
                <mxCell id="35" value="" style="endArrow=classic;html=1;entryX=1.011;entryY=0.364;entryDx=0;entryDy=0;entryPerimeter=0;exitX=0.133;exitY=0.975;exitDx=0;exitDy=0;exitPerimeter=0;" parent="1" source="32" target="34" edge="1">
                    <mxGeometry width="50" height="50" relative="1" as="geometry">
                        <mxPoint x="525.1535954804795" y="100.89248316366445" as="sourcePoint"/>
                        <mxPoint x="403.9100000000001" y="186.51" as="targetPoint"/>
                        <Array as="points"/>
                    </mxGeometry>
                </mxCell>
                <mxCell id="36" value="入力不足" style="text;html=1;align=center;verticalAlign=middle;resizable=0;points=[];autosize=1;strokeColor=none;fillColor=none;fontSize=10;" parent="1" vertex="1">
                    <mxGeometry x="440" y="280" width="60" height="20" as="geometry"/>
                </mxCell>
                <mxCell id="37" value="" style="endArrow=classic;html=1;fontSize=10;" parent="1" edge="1">
                    <mxGeometry width="50" height="50" relative="1" as="geometry">
                        <mxPoint x="330" y="300" as="sourcePoint"/>
                        <mxPoint x="230" y="240" as="targetPoint"/>
                    </mxGeometry>
                </mxCell>
                <mxCell id="40" value="本棚を&lt;br&gt;登録する" style="ellipse;shape=umlControl;whiteSpace=wrap;html=1;fontSize=10;" parent="1" vertex="1">
                    <mxGeometry x="710" y="180" width="70" height="80" as="geometry"/>
                </mxCell>
                <mxCell id="43" value="" style="endArrow=classic;html=1;fontSize=10;entryX=-0.025;entryY=0.489;entryDx=0;entryDy=0;entryPerimeter=0;exitX=1.02;exitY=0.482;exitDx=0;exitDy=0;exitPerimeter=0;" parent="1" source="32" target="40" edge="1">
                    <mxGeometry width="50" height="50" relative="1" as="geometry">
                        <mxPoint x="530" y="440" as="sourcePoint"/>
                        <mxPoint x="480.0000000000023" y="420" as="targetPoint"/>
                        <Array as="points"/>
                    </mxGeometry>
                </mxCell>
                <mxCell id="61" value="" style="endArrow=none;html=1;fontSize=10;entryX=0;entryY=0.5;entryDx=0;entryDy=0;" parent="1" target="22" edge="1">
                    <mxGeometry width="50" height="50" relative="1" as="geometry">
                        <mxPoint x="400" y="129" as="sourcePoint"/>
                        <mxPoint x="460" y="110" as="targetPoint"/>
                    </mxGeometry>
                </mxCell>
                <mxCell id="63" value="" style="endArrow=none;html=1;fontSize=10;entryX=0.5;entryY=1;entryDx=0;entryDy=0;exitX=0.488;exitY=0.083;exitDx=0;exitDy=0;exitPerimeter=0;startArrow=none;" parent="1" source="64" target="19" edge="1">
                    <mxGeometry width="50" height="50" relative="1" as="geometry">
                        <mxPoint x="750" y="160" as="sourcePoint"/>
                        <mxPoint x="550" y="360" as="targetPoint"/>
                    </mxGeometry>
                </mxCell>
                <mxCell id="64" value="登録する" style="text;html=1;align=center;verticalAlign=middle;resizable=0;points=[];autosize=1;strokeColor=none;fillColor=none;fontSize=10;" parent="1" vertex="1">
                    <mxGeometry x="715" y="124" width="60" height="20" as="geometry"/>
                </mxCell>
                <mxCell id="65" value="" style="endArrow=none;html=1;fontSize=10;entryX=0.5;entryY=1;entryDx=0;entryDy=0;exitX=0.488;exitY=0.083;exitDx=0;exitDy=0;exitPerimeter=0;" parent="1" source="40" target="64" edge="1">
                    <mxGeometry width="50" height="50" relative="1" as="geometry">
                        <mxPoint x="744.1600000000001" y="186.64" as="sourcePoint"/>
                        <mxPoint x="745" y="84.00000000000011" as="targetPoint"/>
                    </mxGeometry>
                </mxCell>
                <mxCell id="67" value="IDで&lt;br&gt;本棚を検索" style="text;html=1;align=center;verticalAlign=middle;resizable=0;points=[];autosize=1;strokeColor=none;fillColor=none;fontSize=10;" parent="1" vertex="1">
                    <mxGeometry x="620" y="34" width="70" height="30" as="geometry"/>
                </mxCell>
                <mxCell id="68" value="更新ボタンを押す" style="ellipse;shape=umlControl;whiteSpace=wrap;html=1;fontSize=10;" parent="1" vertex="1">
                    <mxGeometry x="330" y="380" width="70" height="80" as="geometry"/>
                </mxCell>
                <mxCell id="69" value="" style="endArrow=classic;html=1;fontSize=10;" parent="1" edge="1">
                    <mxGeometry width="50" height="50" relative="1" as="geometry">
                        <mxPoint x="400" y="425" as="sourcePoint"/>
                        <mxPoint x="510" y="425" as="targetPoint"/>
                    </mxGeometry>
                </mxCell>
                <mxCell id="70" value="全ての項目が入力されているか確認する" style="ellipse;shape=umlControl;whiteSpace=wrap;html=1;fontSize=10;" parent="1" vertex="1">
                    <mxGeometry x="510" y="380" width="70" height="80" as="geometry"/>
                </mxCell>
                <mxCell id="71" value="入力エラー&lt;br&gt;を出す" style="ellipse;shape=umlControl;whiteSpace=wrap;html=1;fontSize=10;fillColor=#a0522d;strokeColor=#6D1F00;fontColor=#ffffff;" parent="1" vertex="1">
                    <mxGeometry x="335" y="470" width="60" height="70" as="geometry"/>
                </mxCell>
                <mxCell id="72" value="" style="endArrow=classic;html=1;entryX=1.011;entryY=0.364;entryDx=0;entryDy=0;entryPerimeter=0;exitX=0.06;exitY=0.885;exitDx=0;exitDy=0;exitPerimeter=0;" parent="1" source="70" target="71" edge="1">
                    <mxGeometry width="50" height="50" relative="1" as="geometry">
                        <mxPoint x="510" y="460" as="sourcePoint"/>
                        <mxPoint x="393.9100000000001" y="386.51" as="targetPoint"/>
                        <Array as="points"/>
                    </mxGeometry>
                </mxCell>
                <mxCell id="73" value="入力不足" style="text;html=1;align=center;verticalAlign=middle;resizable=0;points=[];autosize=1;strokeColor=none;fillColor=none;fontSize=10;" parent="1" vertex="1">
                    <mxGeometry x="430" y="480" width="60" height="20" as="geometry"/>
                </mxCell>
                <mxCell id="74" value="" style="endArrow=classic;html=1;fontSize=10;exitX=0.024;exitY=0.325;exitDx=0;exitDy=0;exitPerimeter=0;entryX=1.031;entryY=0.731;entryDx=0;entryDy=0;entryPerimeter=0;" parent="1" target="5" edge="1">
                    <mxGeometry width="50" height="50" relative="1" as="geometry">
                        <mxPoint x="331.00000000000006" y="496.75" as="sourcePoint"/>
                        <mxPoint x="230" y="450" as="targetPoint"/>
                    </mxGeometry>
                </mxCell>
                <mxCell id="75" value="本棚の情報を&lt;br&gt;更新する" style="ellipse;shape=umlControl;whiteSpace=wrap;html=1;fontSize=10;" parent="1" vertex="1">
                    <mxGeometry x="705" y="385" width="70" height="80" as="geometry"/>
                </mxCell>
                <mxCell id="76" value="" style="endArrow=classic;html=1;fontSize=10;entryX=-0.025;entryY=0.489;entryDx=0;entryDy=0;entryPerimeter=0;exitX=1.02;exitY=0.482;exitDx=0;exitDy=0;exitPerimeter=0;" parent="1" target="75" edge="1">
                    <mxGeometry width="50" height="50" relative="1" as="geometry">
                        <mxPoint x="581.4000000000001" y="423.55999999999995" as="sourcePoint"/>
                        <mxPoint x="475.0000000000023" y="625" as="targetPoint"/>
                        <Array as="points"/>
                    </mxGeometry>
                </mxCell>
                <mxCell id="77" value="" style="endArrow=none;html=1;fontSize=10;exitX=1;exitY=0.531;exitDx=0;exitDy=0;exitPerimeter=0;entryX=1;entryY=0.5;entryDx=0;entryDy=0;" parent="1" source="75" target="19" edge="1">
                    <mxGeometry width="50" height="50" relative="1" as="geometry">
                        <mxPoint x="500" y="390" as="sourcePoint"/>
                        <mxPoint x="810" y="427" as="targetPoint"/>
                        <Array as="points">
                            <mxPoint x="800" y="427"/>
                            <mxPoint x="800" y="49"/>
                        </Array>
                    </mxGeometry>
                </mxCell>
                <mxCell id="80" value="更&lt;br&gt;新&lt;br&gt;す&lt;br&gt;る" style="text;html=1;align=center;verticalAlign=middle;resizable=0;points=[];autosize=1;strokeColor=none;fillColor=none;fontSize=10;" parent="1" vertex="1">
                    <mxGeometry x="775" y="235" width="30" height="50" as="geometry"/>
                </mxCell>
                <mxCell id="84" value="削除ボタンを押す" style="ellipse;shape=umlControl;whiteSpace=wrap;html=1;fontSize=10;" parent="1" vertex="1">
                    <mxGeometry x="445" y="580" width="70" height="80" as="geometry"/>
                </mxCell>
                <mxCell id="86" value="" style="endArrow=classic;html=1;fontSize=10;entryX=-0.036;entryY=0.479;entryDx=0;entryDy=0;entryPerimeter=0;" parent="1" target="84" edge="1">
                    <mxGeometry width="50" height="50" relative="1" as="geometry">
                        <mxPoint x="210" y="460" as="sourcePoint"/>
                        <mxPoint x="430" y="560" as="targetPoint"/>
                    </mxGeometry>
                </mxCell>
                <mxCell id="87" value="" style="endArrow=classic;html=1;fontSize=10;exitX=1.012;exitY=0.458;exitDx=0;exitDy=0;exitPerimeter=0;entryX=0.131;entryY=0.917;entryDx=0;entryDy=0;entryPerimeter=0;" parent="1" source="84" target="75" edge="1">
                    <mxGeometry width="50" height="50" relative="1" as="geometry">
                        <mxPoint x="450" y="490" as="sourcePoint"/>
                        <mxPoint x="500" y="440" as="targetPoint"/>
                    </mxGeometry>
                </mxCell>
            </root>
        </mxGraphModel>
    </diagram>
</mxfile>